<?xml version="1.0" encoding="utf-8"?>
<!-- Generator: Adobe Illustrator 20.0.0, SVG Export Plug-In . SVG Version: 6.00 Build 0)  -->
<svg version="1.1" id="Ebene_1" xmlns="http://www.w3.org/2000/svg" xmlns:xlink="http://www.w3.org/1999/xlink" x="0px" y="0px"
	 viewBox="0 0 7.7 7.7" style="enable-background:new 0 0 7.7 7.7;" xml:space="preserve">
<g>
	<path d="M7.7,7.1L5.4,4.8c0.9-1.2,0.8-2.8-0.3-3.9C4.6,0.3,3.8,0,3,0S1.4,0.3,0.9,0.9C0.3,1.4,0,2.2,0,3c0,0.8,0.3,1.6,0.9,2.1
		C1.4,5.7,2.2,6,3,6c0.6,0,1.3-0.2,1.8-0.6l2.3,2.3L7.7,7.1z M1.3,4.7C0.8,4.2,0.6,3.6,0.6,3c0-0.6,0.2-1.2,0.7-1.7
		C1.8,0.8,2.4,0.6,3,0.6c0.6,0,1.2,0.2,1.7,0.7c0.9,0.9,0.9,2.5,0,3.4C4.2,5.2,3.6,5.4,3,5.4C2.4,5.4,1.8,5.2,1.3,4.7z"/>
</g>
</svg>
